<svg width="19" height="18" viewBox="0 0 19 18" fill="none" xmlns="http://www.w3.org/2000/svg">
<path d="M16.5489 11.7998C16.5489 11.7998 14.5489 13.9698 14.5489 15.2998C14.5489 15.8302 14.7596 16.3389 15.1347 16.714C15.5097 17.0891 16.0185 17.2998 16.5489 17.2998C17.0793 17.2998 17.588 17.0891 17.9631 16.714C18.3382 16.3389 18.5489 15.8302 18.5489 15.2998C18.5489 13.9698 16.5489 11.7998 16.5489 11.7998ZM2.75889 10.2998L7.54889 5.5098L12.3389 10.2998M14.1089 9.2398L5.16889 0.299805L3.75889 1.7098L6.13889 4.0898L0.988887 9.2398C0.398887 9.7998 0.398887 10.7698 0.988887 11.3598L6.48889 16.8598C6.77889 17.1498 7.16889 17.2998 7.54889 17.2998C7.92889 17.2998 8.31889 17.1498 8.60889 16.8598L14.1089 11.3598C14.6989 10.7698 14.6989 9.7998 14.1089 9.2398Z" fill="#51646E"/>
<path d="M7.61784 15.2968L2.78784 10.2529H12.3552L7.61784 15.2968Z" fill="#FFA000"/>
</svg>
